<?xml version="1.0" encoding="UTF-8" standalone="no"?>
<!-- Created with Inkscape (http://www.inkscape.org/) -->

<svg
   width="32.999859"
   height="25.000137"
   viewBox="0 0 32.999859 25.000137"
   version="1.1"
   id="svg5"
   inkscape:version="1.2 (dc2aedaf03, 2022-05-15)"
   sodipodi:docname="icon-mail.svg"
   xmlns:inkscape="http://www.inkscape.org/namespaces/inkscape"
   xmlns:sodipodi="http://sodipodi.sourceforge.net/DTD/sodipodi-0.dtd"
   xmlns="http://www.w3.org/2000/svg"
   xmlns:svg="http://www.w3.org/2000/svg">
  <sodipodi:namedview
     id="namedview7"
     pagecolor="#000000"
     bordercolor="#666666"
     borderopacity="1.0"
     inkscape:pageshadow="2"
     inkscape:pageopacity="0"
     inkscape:pagecheckerboard="true"
     inkscape:document-units="px"
     showgrid="false"
     showguides="true"
     inkscape:guide-bbox="true"
     inkscape:zoom="5.6568543"
     inkscape:cx="-23.5113"
     inkscape:cy="18.915106"
     inkscape:window-width="1920"
     inkscape:window-height="1017"
     inkscape:window-x="-8"
     inkscape:window-y="380"
     inkscape:window-maximized="1"
     inkscape:current-layer="layer1"
     inkscape:showpageshadow="0"
     inkscape:deskcolor="#000000">
    <sodipodi:guide
       position="16.668706,39.422201"
       orientation="1,0"
       id="guide1589"
       inkscape:locked="false" />
    <sodipodi:guide
       position="-18.562953,13.353411"
       orientation="0,-1"
       id="guide1921"
       inkscape:locked="false" />
  </sodipodi:namedview>
  <defs
     id="defs2" />
  <g
     inkscape:label="Layer 1"
     inkscape:groupmode="layer"
     id="layer1"
     transform="translate(-7.3754532,-12.290773)">
    <g
       id="g1125"
       transform="translate(-151.80569,-221.98578)">
      <g
         id="g1071" />
      <g
         id="g1073" />
      <g
         id="g1075" />
      <g
         id="g1077" />
      <g
         id="g1079" />
      <g
         id="g1081" />
      <g
         id="g1083" />
      <g
         id="g1085" />
      <g
         id="g1087" />
      <g
         id="g1089" />
      <g
         id="g1091" />
      <g
         id="g1093" />
      <g
         id="g1095" />
      <g
         id="g1097" />
      <g
         id="g1099" />
      <g
         id="g1101" />
    </g>
    <g
       id="g10930"
       transform="matrix(0.06751055,0,0,0.06752954,7.8753823,8.7863414)"
       style="fill:#ffffff;fill-opacity:1;stroke:#ffffff;stroke-width:14.8104;stroke-miterlimit:4;stroke-dasharray:none;stroke-opacity:1">
      <g
         id="g10876"
         style="fill:#ffffff;fill-opacity:1;stroke:#ffffff;stroke-width:14.8104;stroke-miterlimit:4;stroke-dasharray:none;stroke-opacity:1">
        <path
           d="M 437.5,59.3 H 36.5 C 16.4,59.3 0,75.7 0,95.8 v 282.4 c 0,20.1 16.4,36.5 36.5,36.5 h 401 c 20.1,0 36.5,-16.4 36.5,-36.5 V 95.8 C 474,75.7 457.6,59.3 437.5,59.3 Z m -5.3,27 L 239.5,251.1 46.8,86.3 Z M 447,378.2 c 0,5.2 -4.3,9.5 -9.5,9.5 h -401 c -5.2,0 -9.5,-4.3 -9.5,-9.5 V 104.9 l 203.7,174.2 c 0.1,0.1 0.3,0.2 0.4,0.3 0.1,0.1 0.3,0.2 0.4,0.3 0.3,0.2 0.5,0.4 0.8,0.5 0.1,0.1 0.2,0.1 0.3,0.2 0.4,0.2 0.8,0.4 1.2,0.6 0.1,0 0.2,0.1 0.3,0.1 0.3,0.1 0.6,0.3 1,0.4 0.1,0 0.3,0.1 0.4,0.1 0.3,0.1 0.6,0.2 0.9,0.2 0.1,0 0.3,0.1 0.4,0.1 0.3,0.1 0.7,0.1 1,0.2 0.1,0 0.2,0 0.3,0 0.4,0 0.9,0.1 1.3,0.1 v 0 0 c 0.4,0 0.9,0 1.3,-0.1 0.1,0 0.2,0 0.3,0 0.3,0 0.7,-0.1 1,-0.2 0.1,0 0.3,-0.1 0.4,-0.1 0.3,-0.1 0.6,-0.2 0.9,-0.2 0.1,0 0.3,-0.1 0.4,-0.1 0.3,-0.1 0.6,-0.2 1,-0.4 0.1,0 0.2,-0.1 0.3,-0.1 0.4,-0.2 0.8,-0.4 1.2,-0.6 0.1,-0.1 0.2,-0.1 0.3,-0.2 0.3,-0.2 0.5,-0.3 0.8,-0.5 0.1,-0.1 0.3,-0.2 0.4,-0.3 0.1,-0.1 0.3,-0.2 0.4,-0.3 L 447,109.2 Z"
           id="path10874"
           style="fill:#ffffff;fill-opacity:1;stroke:#ffffff;stroke-width:14.8104;stroke-miterlimit:4;stroke-dasharray:none;stroke-opacity:1" />
      </g>
      <g
         id="g10878"
         style="fill:#ffffff;fill-opacity:1;stroke:#ffffff;stroke-width:14.8104;stroke-miterlimit:4;stroke-dasharray:none;stroke-opacity:1" />
      <g
         id="g10880"
         style="fill:#ffffff;fill-opacity:1;stroke:#ffffff;stroke-width:14.8104;stroke-miterlimit:4;stroke-dasharray:none;stroke-opacity:1" />
      <g
         id="g10882"
         style="fill:#ffffff;fill-opacity:1;stroke:#ffffff;stroke-width:14.8104;stroke-miterlimit:4;stroke-dasharray:none;stroke-opacity:1" />
      <g
         id="g10884"
         style="fill:#ffffff;fill-opacity:1;stroke:#ffffff;stroke-width:14.8104;stroke-miterlimit:4;stroke-dasharray:none;stroke-opacity:1" />
      <g
         id="g10886"
         style="fill:#ffffff;fill-opacity:1;stroke:#ffffff;stroke-width:14.8104;stroke-miterlimit:4;stroke-dasharray:none;stroke-opacity:1" />
      <g
         id="g10888"
         style="fill:#ffffff;fill-opacity:1;stroke:#ffffff;stroke-width:14.8104;stroke-miterlimit:4;stroke-dasharray:none;stroke-opacity:1" />
      <g
         id="g10890"
         style="fill:#ffffff;fill-opacity:1;stroke:#ffffff;stroke-width:14.8104;stroke-miterlimit:4;stroke-dasharray:none;stroke-opacity:1" />
      <g
         id="g10892"
         style="fill:#ffffff;fill-opacity:1;stroke:#ffffff;stroke-width:14.8104;stroke-miterlimit:4;stroke-dasharray:none;stroke-opacity:1" />
      <g
         id="g10894"
         style="fill:#ffffff;fill-opacity:1;stroke:#ffffff;stroke-width:14.8104;stroke-miterlimit:4;stroke-dasharray:none;stroke-opacity:1" />
      <g
         id="g10896"
         style="fill:#ffffff;fill-opacity:1;stroke:#ffffff;stroke-width:14.8104;stroke-miterlimit:4;stroke-dasharray:none;stroke-opacity:1" />
      <g
         id="g10898"
         style="fill:#ffffff;fill-opacity:1;stroke:#ffffff;stroke-width:14.8104;stroke-miterlimit:4;stroke-dasharray:none;stroke-opacity:1" />
      <g
         id="g10900"
         style="fill:#ffffff;fill-opacity:1;stroke:#ffffff;stroke-width:14.8104;stroke-miterlimit:4;stroke-dasharray:none;stroke-opacity:1" />
      <g
         id="g10902"
         style="fill:#ffffff;fill-opacity:1;stroke:#ffffff;stroke-width:14.8104;stroke-miterlimit:4;stroke-dasharray:none;stroke-opacity:1" />
      <g
         id="g10904"
         style="fill:#ffffff;fill-opacity:1;stroke:#ffffff;stroke-width:14.8104;stroke-miterlimit:4;stroke-dasharray:none;stroke-opacity:1" />
      <g
         id="g10906"
         style="fill:#ffffff;fill-opacity:1;stroke:#ffffff;stroke-width:14.8104;stroke-miterlimit:4;stroke-dasharray:none;stroke-opacity:1" />
    </g>
  </g>
</svg>
